<svg xmlns="http://www.w3.org/2000/svg" viewBox="0 0 128 128">
  <defs>
    <linearGradient id="fondo" x1="0" y1="0" x2="1" y2="1">
      <stop offset="0" stop-color="#0c4a6e"/>
      <stop offset="1" stop-color="#082f49"/>
    </linearGradient>
  </defs>
  <rect width="128" height="128" rx="32" fill="url(#fondo)"/>
  <!-- cuello en S -->
  <path d="M50 64 C 50 48, 58 44, 62 38 C 66 32, 62 26, 54 27" fill="none" stroke="#f0f9ff" stroke-width="11" stroke-linecap="round"/>
  <!-- cabeza -->
  <circle cx="50" cy="28" r="8.5" fill="#f0f9ff"/>
  <!-- pico -->
  <path d="M42 25 L 28 30 L 43 34 Z" fill="#22d3ee"/>
  <!-- cuerpo -->
  <path d="M34 70 C 22 72, 16 80, 18 88 L 96 88 C 102 80, 100 70, 90 66 C 78 60, 52 60, 34 70 Z" fill="#f0f9ff"/>
  <!-- ala -->
  <path d="M46 74 C 54 66, 68 64, 78 70 C 70 78, 54 80, 46 74 Z" fill="#dbeafe" opacity=".55"/>
  <!-- agua -->
  <path d="M28 96 Q 44 92, 60 96 T 92 96" stroke="#38bdf8" stroke-width="5" fill="none" stroke-linecap="round" opacity=".75"/>
  <path d="M44 106 Q 60 102, 76 106" stroke="#7dd3fc" stroke-width="4" fill="none" stroke-linecap="round" opacity=".5"/>
</svg>
